<?xml version="1.0" encoding="utf-8" standalone="no"?>
<!DOCTYPE svg PUBLIC "-//W3C//DTD SVG 1.1//EN"
  "http://www.w3.org/Graphics/SVG/1.1/DTD/svg11.dtd">
<svg xmlns:xlink="http://www.w3.org/1999/xlink" width="648pt" height="259.2pt" viewBox="0 0 648 259.2" xmlns="http://www.w3.org/2000/svg" version="1.1">
 <metadata>
  <rdf:RDF xmlns:dc="http://purl.org/dc/elements/1.1/" xmlns:cc="http://creativecommons.org/ns#" xmlns:rdf="http://www.w3.org/1999/02/22-rdf-syntax-ns#">
   <cc:Work>
    <dc:type rdf:resource="http://purl.org/dc/dcmitype/StillImage"/>
    <dc:date>2026-09-20T00:16:28.305113</dc:date>
    <dc:format>image/svg+xml</dc:format>
    <dc:creator>
     <cc:Agent>
      <dc:title>Matplotlib v3.10.8, https://matplotlib.org/</dc:title>
     </cc:Agent>
    </dc:creator>
   </cc:Work>
  </rdf:RDF>
 </metadata>
 <defs>
  <style type="text/css">*{stroke-linejoin: round; stroke-linecap: butt}</style>
 </defs>
 <g id="figure_1">
  <g id="patch_1">
   <path d="M 0 259.2 
L 648 259.2 
L 648 0 
L 0 0 
L 0 259.2 
z
" style="fill: none"/>
  </g>
  <g id="axes_1">
   <g id="patch_2">
    <path d="M 47.63 214.72 
L 636.12 214.72 
L 636.12 16.2 
L 47.63 16.2 
L 47.63 214.72 
z
" style="fill: none"/>
   </g>
   <g id="matplotlib.axis_1">
    <g id="xtick_1">
     <g id="line2d_1">
      <path d="M 74.379545 214.72 
L 74.379545 16.2 
" clip-path="url(#p7fa7f51f0d)" style="fill: none; stroke: #e4e7e3; stroke-width: 0.7; stroke-linecap: square"/>
     </g>
     <g id="line2d_2">
      <defs>
       <path id="ma941cf4512" d="M 0 0 
L 0 3.5 
" style="stroke: #4a5552; stroke-width: 0.8"/>
      </defs>
      <g>
       <use xlink:href="#ma941cf4512" x="74.379545" y="214.72" style="fill: #4a5552; stroke: #4a5552; stroke-width: 0.8"/>
      </g>
     </g>
     <g id="text_1">
      <text style="font-size: 11px; font-family: 'system-ui', 'DejaVu Sans', sans-serif; text-anchor: middle; fill: #4a5552" x="74.379545" y="230.078281" transform="rotate(-0 74.379545 230.078281)">0</text>
     </g>
    </g>
    <g id="xtick_2">
     <g id="line2d_3">
      <path d="M 146.260816 214.72 
L 146.260816 16.2 
" clip-path="url(#p7fa7f51f0d)" style="fill: none; stroke: #e4e7e3; stroke-width: 0.7; stroke-linecap: square"/>
     </g>
     <g id="line2d_4">
      <g>
       <use xlink:href="#ma941cf4512" x="146.260816" y="214.72" style="fill: #4a5552; stroke: #4a5552; stroke-width: 0.8"/>
      </g>
     </g>
     <g id="text_2">
      <text style="font-size: 11px; font-family: 'system-ui', 'DejaVu Sans', sans-serif; text-anchor: middle; fill: #4a5552" x="146.260816" y="230.078281" transform="rotate(-0 146.260816 230.078281)">100</text>
     </g>
    </g>
    <g id="xtick_3">
     <g id="line2d_5">
      <path d="M 218.142087 214.72 
L 218.142087 16.2 
" clip-path="url(#p7fa7f51f0d)" style="fill: none; stroke: #e4e7e3; stroke-width: 0.7; stroke-linecap: square"/>
     </g>
     <g id="line2d_6">
      <g>
       <use xlink:href="#ma941cf4512" x="218.142087" y="214.72" style="fill: #4a5552; stroke: #4a5552; stroke-width: 0.8"/>
      </g>
     </g>
     <g id="text_3">
      <text style="font-size: 11px; font-family: 'system-ui', 'DejaVu Sans', sans-serif; text-anchor: middle; fill: #4a5552" x="218.142087" y="230.078281" transform="rotate(-0 218.142087 230.078281)">200</text>
     </g>
    </g>
    <g id="xtick_4">
     <g id="line2d_7">
      <path d="M 290.023357 214.72 
L 290.023357 16.2 
" clip-path="url(#p7fa7f51f0d)" style="fill: none; stroke: #e4e7e3; stroke-width: 0.7; stroke-linecap: square"/>
     </g>
     <g id="line2d_8">
      <g>
       <use xlink:href="#ma941cf4512" x="290.023357" y="214.72" style="fill: #4a5552; stroke: #4a5552; stroke-width: 0.8"/>
      </g>
     </g>
     <g id="text_4">
      <text style="font-size: 11px; font-family: 'system-ui', 'DejaVu Sans', sans-serif; text-anchor: middle; fill: #4a5552" x="290.023357" y="230.078281" transform="rotate(-0 290.023357 230.078281)">300</text>
     </g>
    </g>
    <g id="xtick_5">
     <g id="line2d_9">
      <path d="M 361.904628 214.72 
L 361.904628 16.2 
" clip-path="url(#p7fa7f51f0d)" style="fill: none; stroke: #e4e7e3; stroke-width: 0.7; stroke-linecap: square"/>
     </g>
     <g id="line2d_10">
      <g>
       <use xlink:href="#ma941cf4512" x="361.904628" y="214.72" style="fill: #4a5552; stroke: #4a5552; stroke-width: 0.8"/>
      </g>
     </g>
     <g id="text_5">
      <text style="font-size: 11px; font-family: 'system-ui', 'DejaVu Sans', sans-serif; text-anchor: middle; fill: #4a5552" x="361.904628" y="230.078281" transform="rotate(-0 361.904628 230.078281)">400</text>
     </g>
    </g>
    <g id="xtick_6">
     <g id="line2d_11">
      <path d="M 433.785899 214.72 
L 433.785899 16.2 
" clip-path="url(#p7fa7f51f0d)" style="fill: none; stroke: #e4e7e3; stroke-width: 0.7; stroke-linecap: square"/>
     </g>
     <g id="line2d_12">
      <g>
       <use xlink:href="#ma941cf4512" x="433.785899" y="214.72" style="fill: #4a5552; stroke: #4a5552; stroke-width: 0.8"/>
      </g>
     </g>
     <g id="text_6">
      <text style="font-size: 11px; font-family: 'system-ui', 'DejaVu Sans', sans-serif; text-anchor: middle; fill: #4a5552" x="433.785899" y="230.078281" transform="rotate(-0 433.785899 230.078281)">500</text>
     </g>
    </g>
    <g id="xtick_7">
     <g id="line2d_13">
      <path d="M 505.667169 214.72 
L 505.667169 16.2 
" clip-path="url(#p7fa7f51f0d)" style="fill: none; stroke: #e4e7e3; stroke-width: 0.7; stroke-linecap: square"/>
     </g>
     <g id="line2d_14">
      <g>
       <use xlink:href="#ma941cf4512" x="505.667169" y="214.72" style="fill: #4a5552; stroke: #4a5552; stroke-width: 0.8"/>
      </g>
     </g>
     <g id="text_7">
      <text style="font-size: 11px; font-family: 'system-ui', 'DejaVu Sans', sans-serif; text-anchor: middle; fill: #4a5552" x="505.667169" y="230.078281" transform="rotate(-0 505.667169 230.078281)">600</text>
     </g>
    </g>
    <g id="xtick_8">
     <g id="line2d_15">
      <path d="M 577.54844 214.72 
L 577.54844 16.2 
" clip-path="url(#p7fa7f51f0d)" style="fill: none; stroke: #e4e7e3; stroke-width: 0.7; stroke-linecap: square"/>
     </g>
     <g id="line2d_16">
      <g>
       <use xlink:href="#ma941cf4512" x="577.54844" y="214.72" style="fill: #4a5552; stroke: #4a5552; stroke-width: 0.8"/>
      </g>
     </g>
     <g id="text_8">
      <text style="font-size: 11px; font-family: 'system-ui', 'DejaVu Sans', sans-serif; text-anchor: middle; fill: #4a5552" x="577.54844" y="230.078281" transform="rotate(-0 577.54844 230.078281)">700</text>
     </g>
    </g>
    <g id="text_9">
     <text style="font-size: 11px; font-family: 'system-ui', 'DejaVu Sans', sans-serif; text-anchor: middle; fill: #4a5552" x="341.875" y="244.724219" transform="rotate(-0 341.875 244.724219)">time (s)</text>
    </g>
   </g>
   <g id="matplotlib.axis_2">
    <g id="ytick_1">
     <g id="line2d_17">
      <path d="M 47.63 196.672727 
L 636.12 196.672727 
" clip-path="url(#p7fa7f51f0d)" style="fill: none; stroke: #e4e7e3; stroke-width: 0.7; stroke-linecap: square"/>
     </g>
     <g id="line2d_18">
      <defs>
       <path id="m3fe63a00c1" d="M 0 0 
L -3.5 0 
" style="stroke: #4a5552; stroke-width: 0.8"/>
      </defs>
      <g>
       <use xlink:href="#m3fe63a00c1" x="47.63" y="196.672727" style="fill: #4a5552; stroke: #4a5552; stroke-width: 0.8"/>
      </g>
     </g>
     <g id="text_10">
      <text style="font-size: 11px; font-family: 'system-ui', 'DejaVu Sans', sans-serif; text-anchor: end; fill: #4a5552" x="40.63" y="200.851868" transform="rotate(-0 40.63 200.851868)">0</text>
     </g>
    </g>
    <g id="ytick_2">
     <g id="line2d_19">
      <path d="M 47.63 174.113636 
L 636.12 174.113636 
" clip-path="url(#p7fa7f51f0d)" style="fill: none; stroke: #e4e7e3; stroke-width: 0.7; stroke-linecap: square"/>
     </g>
     <g id="line2d_20">
      <g>
       <use xlink:href="#m3fe63a00c1" x="47.63" y="174.113636" style="fill: #4a5552; stroke: #4a5552; stroke-width: 0.8"/>
      </g>
     </g>
     <g id="text_11">
      <text style="font-size: 11px; font-family: 'system-ui', 'DejaVu Sans', sans-serif; text-anchor: end; fill: #4a5552" x="40.63" y="178.292777" transform="rotate(-0 40.63 178.292777)">5</text>
     </g>
    </g>
    <g id="ytick_3">
     <g id="line2d_21">
      <path d="M 47.63 151.554545 
L 636.12 151.554545 
" clip-path="url(#p7fa7f51f0d)" style="fill: none; stroke: #e4e7e3; stroke-width: 0.7; stroke-linecap: square"/>
     </g>
     <g id="line2d_22">
      <g>
       <use xlink:href="#m3fe63a00c1" x="47.63" y="151.554545" style="fill: #4a5552; stroke: #4a5552; stroke-width: 0.8"/>
      </g>
     </g>
     <g id="text_12">
      <text style="font-size: 11px; font-family: 'system-ui', 'DejaVu Sans', sans-serif; text-anchor: end; fill: #4a5552" x="40.63" y="155.733686" transform="rotate(-0 40.63 155.733686)">10</text>
     </g>
    </g>
    <g id="ytick_4">
     <g id="line2d_23">
      <path d="M 47.63 128.995455 
L 636.12 128.995455 
" clip-path="url(#p7fa7f51f0d)" style="fill: none; stroke: #e4e7e3; stroke-width: 0.7; stroke-linecap: square"/>
     </g>
     <g id="line2d_24">
      <g>
       <use xlink:href="#m3fe63a00c1" x="47.63" y="128.995455" style="fill: #4a5552; stroke: #4a5552; stroke-width: 0.8"/>
      </g>
     </g>
     <g id="text_13">
      <text style="font-size: 11px; font-family: 'system-ui', 'DejaVu Sans', sans-serif; text-anchor: end; fill: #4a5552" x="40.63" y="133.174595" transform="rotate(-0 40.63 133.174595)">15</text>
     </g>
    </g>
    <g id="ytick_5">
     <g id="line2d_25">
      <path d="M 47.63 106.436364 
L 636.12 106.436364 
" clip-path="url(#p7fa7f51f0d)" style="fill: none; stroke: #e4e7e3; stroke-width: 0.7; stroke-linecap: square"/>
     </g>
     <g id="line2d_26">
      <g>
       <use xlink:href="#m3fe63a00c1" x="47.63" y="106.436364" style="fill: #4a5552; stroke: #4a5552; stroke-width: 0.8"/>
      </g>
     </g>
     <g id="text_14">
      <text style="font-size: 11px; font-family: 'system-ui', 'DejaVu Sans', sans-serif; text-anchor: end; fill: #4a5552" x="40.63" y="110.615504" transform="rotate(-0 40.63 110.615504)">20</text>
     </g>
    </g>
    <g id="ytick_6">
     <g id="line2d_27">
      <path d="M 47.63 83.877273 
L 636.12 83.877273 
" clip-path="url(#p7fa7f51f0d)" style="fill: none; stroke: #e4e7e3; stroke-width: 0.7; stroke-linecap: square"/>
     </g>
     <g id="line2d_28">
      <g>
       <use xlink:href="#m3fe63a00c1" x="47.63" y="83.877273" style="fill: #4a5552; stroke: #4a5552; stroke-width: 0.8"/>
      </g>
     </g>
     <g id="text_15">
      <text style="font-size: 11px; font-family: 'system-ui', 'DejaVu Sans', sans-serif; text-anchor: end; fill: #4a5552" x="40.63" y="88.056413" transform="rotate(-0 40.63 88.056413)">25</text>
     </g>
    </g>
    <g id="ytick_7">
     <g id="line2d_29">
      <path d="M 47.63 61.318182 
L 636.12 61.318182 
" clip-path="url(#p7fa7f51f0d)" style="fill: none; stroke: #e4e7e3; stroke-width: 0.7; stroke-linecap: square"/>
     </g>
     <g id="line2d_30">
      <g>
       <use xlink:href="#m3fe63a00c1" x="47.63" y="61.318182" style="fill: #4a5552; stroke: #4a5552; stroke-width: 0.8"/>
      </g>
     </g>
     <g id="text_16">
      <text style="font-size: 11px; font-family: 'system-ui', 'DejaVu Sans', sans-serif; text-anchor: end; fill: #4a5552" x="40.63" y="65.497322" transform="rotate(-0 40.63 65.497322)">30</text>
     </g>
    </g>
    <g id="ytick_8">
     <g id="line2d_31">
      <path d="M 47.63 38.759091 
L 636.12 38.759091 
" clip-path="url(#p7fa7f51f0d)" style="fill: none; stroke: #e4e7e3; stroke-width: 0.7; stroke-linecap: square"/>
     </g>
     <g id="line2d_32">
      <g>
       <use xlink:href="#m3fe63a00c1" x="47.63" y="38.759091" style="fill: #4a5552; stroke: #4a5552; stroke-width: 0.8"/>
      </g>
     </g>
     <g id="text_17">
      <text style="font-size: 11px; font-family: 'system-ui', 'DejaVu Sans', sans-serif; text-anchor: end; fill: #4a5552" x="40.63" y="42.938232" transform="rotate(-0 40.63 42.938232)">35</text>
     </g>
    </g>
    <g id="ytick_9">
     <g id="line2d_33">
      <path d="M 47.63 16.2 
L 636.12 16.2 
" clip-path="url(#p7fa7f51f0d)" style="fill: none; stroke: #e4e7e3; stroke-width: 0.7; stroke-linecap: square"/>
     </g>
     <g id="line2d_34">
      <g>
       <use xlink:href="#m3fe63a00c1" x="47.63" y="16.2" style="fill: #4a5552; stroke: #4a5552; stroke-width: 0.8"/>
      </g>
     </g>
     <g id="text_18">
      <text style="font-size: 11px; font-family: 'system-ui', 'DejaVu Sans', sans-serif; text-anchor: end; fill: #4a5552" x="40.63" y="20.379141" transform="rotate(-0 40.63 20.379141)">40</text>
     </g>
    </g>
    <g id="text_19">
     <text style="font-size: 11px; font-family: 'system-ui', 'DejaVu Sans', sans-serif; text-anchor: middle; fill: #4a5552" x="20.344844" y="115.46" transform="rotate(-90 20.344844 115.46)">forward speed (m/s)</text>
    </g>
   </g>
   <g id="line2d_35">
    <path d="M 74.379545 196.672727 
L 75.9609 195.673927 
L 76.392062 195.424933 
L 76.82355 195.848174 
L 76.967432 196.109034 
L 77.254612 197.359625 
L 77.974362 203.170307 
L 79.555096 216.391487 
L 80.274327 220.799316 
L 80.705784 222.738422 
L 81.855757 225.910133 
L 82.861933 227.752516 
L 83.15043 227.745441 
L 83.437098 227.619165 
L 83.868645 228.032927 
L 84.299775 227.878646 
L 84.443374 228.025287 
L 84.874999 227.829602 
L 85.306454 227.426821 
L 85.450682 227.313206 
L 86.169319 225.229089 
L 86.600242 224.000138 
L 86.744471 224.006619 
L 87.319277 223.32598 
L 87.894557 222.956801 
L 88.325614 222.000753 
L 89.620634 217.269484 
L 89.907114 217.061069 
L 90.051264 217.220554 
L 90.195075 217.134373 
L 90.482519 216.625073 
L 91.057741 215.574991 
L 91.488753 214.318046 
L 91.776822 214.07462 
L 92.207795 214.431533 
L 93.214537 216.740435 
L 94.078946 217.147323 
L 94.508222 217.943183 
L 94.652424 218.224578 
L 94.796194 217.966708 
L 94.939969 217.376305 
L 95.083747 217.422204 
L 95.802573 216.452025 
L 95.946315 216.397025 
L 96.665228 214.875504 
L 97.529628 210.63467 
L 97.961034 206.798318 
L 98.679213 197.11372 
L 99.253529 189.160408 
L 99.684829 185.862763 
L 99.972127 184.592059 
L 100.403894 184.457979 
L 100.691242 184.596771 
L 100.834953 184.973777 
L 101.41018 188.913148 
L 102.704382 199.678697 
L 103.423368 203.220625 
L 103.710635 203.63071 
L 104.141792 203.57729 
L 104.717158 202.631593 
L 105.00496 201.739323 
L 105.579687 199.678794 
L 105.723296 199.505088 
L 105.867592 199.518759 
L 106.298699 199.056772 
L 106.730217 199.077939 
L 106.87405 199.2712 
L 107.30553 200.629904 
L 108.455795 205.219623 
L 108.599215 205.637112 
L 108.88706 205.229435 
L 109.174621 206.854579 
L 109.318259 206.840244 
L 109.473012 207.085003 
L 109.749848 206.992931 
L 109.894217 206.743097 
L 110.037476 207.084184 
L 110.182117 206.840636 
L 110.324798 206.866384 
L 110.468607 206.182523 
L 110.612442 206.577831 
L 110.756368 206.251363 
L 111.043695 204.869319 
L 111.33206 205.376135 
L 111.618978 204.87294 
L 111.762821 204.948263 
L 111.90659 204.600878 
L 112.050011 204.794886 
L 112.194114 204.570443 
L 112.338582 204.63908 
L 112.625558 204.109257 
L 112.913396 204.318549 
L 114.494229 208.376282 
L 114.925967 208.401411 
L 115.357256 207.692308 
L 115.788856 206.63682 
L 116.076738 205.166496 
L 116.50761 201.242327 
L 117.082975 196.271941 
L 117.226721 196.224424 
L 117.370691 195.530761 
L 117.514528 194.142774 
L 117.657835 193.948774 
L 117.80197 194.29302 
L 117.945785 194.191352 
L 118.089379 194.281314 
L 118.520463 195.672582 
L 119.095838 198.316457 
L 119.239601 198.335731 
L 119.671084 197.429587 
L 120.246196 194.949278 
L 120.964827 190.413445 
L 121.541459 185.355026 
L 122.404218 176.418734 
L 123.121772 171.576231 
L 123.409134 170.958485 
L 123.697016 170.764478 
L 123.840755 170.960244 
L 124.128177 172.00699 
L 124.990821 176.257331 
L 125.997637 180.566995 
L 126.285252 182.319308 
L 127.003232 184.332361 
L 127.290913 184.458631 
L 127.578668 184.152967 
L 127.866557 182.836241 
L 128.154593 180.274548 
L 128.729323 174.687223 
L 129.160992 174.527349 
L 129.449621 173.805863 
L 130.023161 175.709662 
L 130.886227 180.781842 
L 131.172774 181.627312 
L 131.316024 181.735024 
L 131.604175 182.388456 
L 132.322822 183.49189 
L 132.466503 183.475589 
L 133.041897 184.181158 
L 133.328758 184.607749 
L 133.472461 184.451919 
L 133.760185 184.621108 
L 134.046504 184.461041 
L 134.334926 183.758033 
L 134.623283 182.172386 
L 135.628848 172.558355 
L 136.060166 168.471425 
L 136.204 168.202744 
L 136.490975 168.151935 
L 136.778265 166.939662 
L 137.353392 168.355196 
L 138.215711 172.954891 
L 138.934384 174.306864 
L 139.222913 175.364312 
L 139.509434 176.151431 
L 139.653138 176.200626 
L 140.085397 175.766264 
L 140.372105 175.552342 
L 140.660067 174.89338 
L 141.522967 172.919467 
L 142.240394 169.607201 
L 142.384664 168.678092 
L 142.671724 166.306599 
L 142.959624 166.50629 
L 143.247723 165.008041 
L 143.534225 164.926295 
L 143.821379 164.453148 
L 144.252877 164.40756 
L 144.540083 165.009221 
L 145.833015 168.779076 
L 146.840126 170.805587 
L 147.128274 171.492755 
L 147.415294 171.472955 
L 147.846764 170.337535 
L 147.990393 170.025136 
L 148.277732 168.937273 
L 148.56509 168.026881 
L 149.139471 165.68439 
L 149.428233 165.797774 
L 149.571811 165.888053 
L 149.715602 165.836801 
L 150.00347 165.543854 
L 150.146416 165.560227 
L 150.290532 165.432656 
L 150.43505 165.701926 
L 150.72261 166.473372 
L 151.153783 166.812136 
L 151.297737 167.157608 
L 151.58404 166.874861 
L 151.875301 167.04547 
L 152.734237 164.796846 
L 153.02145 162.974002 
L 153.309028 162.896487 
L 153.596574 162.535653 
L 153.740224 162.46001 
L 153.883852 162.518352 
L 154.027474 162.174398 
L 154.172088 162.203586 
L 154.602707 161.084699 
L 154.891091 160.458277 
L 155.034437 160.461116 
L 155.896178 157.55451 
L 156.471369 155.238218 
L 157.04643 151.797165 
L 157.765356 146.499626 
L 158.196757 145.069407 
L 159.921803 135.072676 
L 160.352826 133.825886 
L 160.496577 133.940617 
L 160.926936 135.574129 
L 161.216102 136.206841 
L 161.503846 138.348981 
L 161.935163 142.281734 
L 162.221491 143.917798 
L 162.509673 144.57172 
L 163.085182 147.268999 
L 163.659155 149.854749 
L 163.802803 150.017311 
L 164.090791 149.864896 
L 164.234445 149.931808 
L 165.096691 149.588995 
L 165.384845 148.578619 
L 166.103938 142.824906 
L 166.246593 141.569355 
L 166.67866 140.564314 
L 166.965491 139.45185 
L 167.110609 139.513127 
L 167.25336 139.846653 
L 167.404377 139.850441 
L 167.540714 139.982708 
L 167.829041 140.845153 
L 168.259835 142.386542 
L 168.690778 142.865507 
L 169.554347 144.361137 
L 169.984608 144.765629 
L 170.416143 144.899584 
L 170.847224 144.555402 
L 170.991026 144.429551 
L 171.423252 142.954341 
L 172.141328 139.876153 
L 172.859611 136.229667 
L 173.003968 134.90476 
L 173.147529 134.71202 
L 173.434827 135.307083 
L 173.57842 135.029213 
L 173.866437 133.935209 
L 174.009987 133.75532 
L 174.153798 133.81148 
L 174.441305 133.597889 
L 174.585643 133.655756 
L 174.871487 134.132524 
L 176.023204 136.945692 
L 176.310359 137.820414 
L 176.741476 138.789212 
L 177.172845 139.736013 
L 177.460276 140.136764 
L 177.748102 140.609426 
L 178.179024 140.777689 
L 178.322857 140.708513 
L 178.754302 140.010399 
L 179.185749 138.960109 
L 179.616933 138.94906 
L 180.047798 138.289666 
L 180.479733 136.775673 
L 181.917164 128.918783 
L 182.348158 128.502832 
L 182.636692 127.908825 
L 182.923484 128.315263 
L 183.211176 127.128465 
L 183.356306 127.013809 
L 184.073147 128.822197 
L 184.361555 130.259434 
L 184.792879 132.267428 
L 185.080446 132.879693 
L 185.942683 133.158896 
L 187.236651 132.230742 
L 187.52514 132.181089 
L 187.955288 131.971228 
L 188.099684 131.650208 
L 188.386636 130.41876 
L 188.817738 126.917581 
L 189.249215 124.295368 
L 189.392503 124.164689 
L 189.682158 124.404086 
L 189.968191 123.51699 
L 190.255579 123.654605 
L 190.686872 124.272235 
L 190.974009 125.534392 
L 191.840017 129.004341 
L 192.125374 129.258678 
L 192.26816 129.221357 
L 192.843499 130.222259 
L 193.131365 130.426699 
L 193.562144 130.512563 
L 193.993166 130.158805 
L 194.280999 129.328904 
L 195.862562 123.122601 
L 196.149883 122.209393 
L 196.437746 121.768109 
L 196.868816 120.139152 
L 197.300351 116.964853 
L 198.306856 108.580168 
L 198.594135 107.308744 
L 199.025568 105.177817 
L 199.312804 104.879913 
L 199.457125 104.729154 
L 199.60082 105.007202 
L 200.031948 106.76298 
L 200.46317 107.931092 
L 200.750593 109.19832 
L 201.038099 110.850941 
L 201.46949 112.0379 
L 201.756827 112.402769 
L 202.763582 116.059087 
L 203.338292 119.18921 
L 203.769907 120.370793 
L 203.91349 120.648727 
L 204.489799 120.568443 
L 204.919759 119.731149 
L 205.063988 119.548618 
L 205.207899 119.555932 
L 205.926585 117.053243 
L 207.076498 110.899515 
L 207.220194 110.949624 
L 207.363871 110.365783 
L 207.652065 108.653685 
L 207.939173 108.144633 
L 208.2264 107.966165 
L 208.514513 107.430265 
L 208.80185 107.642574 
L 208.945585 108.076692 
L 209.233181 108.223128 
L 209.664339 108.908059 
L 209.812946 108.995036 
L 209.952082 109.313137 
L 210.526753 108.9812 
L 210.814863 108.271378 
L 211.102099 106.061978 
L 211.533665 104.812421 
L 211.677469 104.279256 
L 211.965584 104.190357 
L 212.253293 103.448779 
L 212.396506 103.381557 
L 212.540078 103.135344 
L 212.971572 103.384622 
L 214.265032 106.514414 
L 214.408756 106.569042 
L 214.553076 106.209482 
L 214.696974 106.21331 
L 214.98432 106.51467 
L 215.271876 106.182169 
L 215.415671 106.711155 
L 215.702856 106.489624 
L 215.990149 107.269324 
L 216.56602 109.460154 
L 217.140867 110.762447 
L 217.428445 111.641885 
L 217.859715 112.049155 
L 218.147525 112.71741 
L 218.434673 112.859079 
L 218.722615 113.132041 
L 218.866195 113.095043 
L 219.153417 112.50668 
L 219.299402 112.691565 
L 219.441355 112.06965 
L 219.584985 112.147584 
L 219.728708 112.056492 
L 220.160157 112.421041 
L 220.304115 112.425574 
L 220.447549 112.279838 
L 220.735099 112.387026 
L 221.166424 112.186288 
L 221.312075 111.404961 
L 221.454207 111.562951 
L 221.597458 111.911014 
L 221.887025 110.201733 
L 222.029332 110.340494 
L 222.172666 110.670828 
L 222.461208 110.473021 
L 222.748111 110.614922 
L 223.035383 111.256364 
L 223.466954 111.828319 
L 223.754642 112.76661 
L 223.898003 112.772097 
L 224.185773 112.095874 
L 224.475064 111.314455 
L 224.618677 111.380603 
L 224.904743 111.145395 
L 225.06037 110.861981 
L 225.191984 111.157212 
L 225.335725 111.06963 
L 225.479802 110.674123 
L 225.76821 108.806066 
L 226.054755 109.806625 
L 226.486386 109.101388 
L 226.630089 109.703202 
L 226.91834 109.384073 
L 227.061158 108.976627 
L 227.204827 108.090678 
L 227.349068 108.081259 
L 227.636381 107.524426 
L 228.067971 106.639915 
L 228.211659 106.575399 
L 228.642623 105.30522 
L 229.074217 103.558916 
L 229.505497 102.043897 
L 229.648993 101.924912 
L 229.793077 101.508856 
L 230.080432 100.525394 
L 230.224185 100.739387 
L 230.512013 100.439406 
L 230.655695 100.336408 
L 231.087026 99.602549 
L 231.374674 99.646 
L 232.093558 100.361477 
L 233.243523 103.14356 
L 233.674761 104.531182 
L 234.106189 105.447294 
L 234.394757 105.394773 
L 234.681584 104.835178 
L 234.969331 103.676156 
L 235.544087 100.240606 
L 236.40709 95.587872 
L 236.838468 94.246534 
L 237.412961 91.386331 
L 238.707443 86.250243 
L 238.994705 85.892784 
L 239.281979 85.712584 
L 239.857611 85.65331 
L 240.001051 85.791252 
L 240.288857 85.781197 
L 240.432675 85.91605 
L 240.576398 86.345715 
L 240.719944 86.415388 
L 241.007662 86.835386 
L 241.295452 87.281646 
L 241.871354 88.06078 
L 242.014073 88.125104 
L 242.733008 87.655956 
L 242.877283 87.296258 
L 243.595631 83.556276 
L 245.322345 72.493965 
L 247.333617 61.448292 
L 247.477335 61.471044 
L 248.052828 61.040152 
L 250.354743 59.427668 
L 250.928349 59.035731 
L 251.360036 58.740573 
L 251.934695 58.236148 
L 253.373692 57.198725 
L 253.80356 56.777641 
L 254.235326 56.555796 
L 257.398397 54.393917 
L 257.829881 54.091782 
L 258.692675 53.547956 
L 258.97969 53.774039 
L 259.269442 54.177423 
L 259.556082 55.216511 
L 260.417658 60.319275 
L 261.58628 66.809914 
L 261.8734 67.547935 
L 262.59236 68.659096 
L 262.879874 68.763247 
L 263.024153 68.715676 
L 263.312059 68.15477 
L 264.461313 65.124495 
L 265.324145 63.981067 
L 265.468263 64.018479 
L 265.899333 64.688572 
L 266.186592 64.946508 
L 267.049427 66.689702 
L 267.768233 69.947936 
L 268.487296 75.444765 
L 269.494397 81.341855 
L 269.781514 81.897324 
L 269.925034 82.00584 
L 270.214018 83.043405 
L 270.788136 84.899073 
L 271.075611 85.460124 
L 271.21933 85.533401 
L 271.363258 85.472447 
L 271.650834 85.095594 
L 271.938278 84.381414 
L 272.081903 84.338832 
L 272.225548 84.110068 
L 273.232387 80.617935 
L 273.66421 80.015653 
L 274.095053 79.754843 
L 274.382579 79.703282 
L 274.814115 79.91496 
L 275.101345 79.865236 
L 275.388789 80.100384 
L 275.820744 80.721963 
L 276.252198 80.940392 
L 276.827638 81.662274 
L 277.114337 81.643437 
L 277.401875 81.143392 
L 277.689169 79.985096 
L 278.264382 77.600719 
L 279.126988 74.95385 
L 279.558689 74.327107 
L 280.133441 73.381981 
L 280.565036 73.057507 
L 280.708714 73.30196 
L 280.85237 73.096482 
L 280.995906 72.675177 
L 281.571245 73.524852 
L 281.714947 73.936164 
L 281.859215 73.821352 
L 282.146507 74.529961 
L 282.434632 75.125257 
L 282.577653 75.139552 
L 282.721813 75.77843 
L 282.866778 75.302699 
L 283.440505 76.940529 
L 283.585099 77.079288 
L 283.728537 76.922071 
L 283.871861 76.989194 
L 284.159416 77.594986 
L 284.303672 77.432313 
L 284.447094 77.598292 
L 284.591731 77.470465 
L 285.023101 77.72946 
L 285.309932 77.648706 
L 285.597168 78.316387 
L 285.884945 78.655612 
L 286.316159 77.937294 
L 286.891372 76.587272 
L 287.034928 76.153474 
L 287.322384 74.273149 
L 287.46658 74.078978 
L 289.335433 67.286039 
L 291.060696 62.334406 
L 291.204958 62.250769 
L 291.636004 62.320249 
L 291.923483 62.448831 
L 292.354933 63.25686 
L 292.64227 63.767946 
L 293.93832 65.801133 
L 294.65588 66.506538 
L 294.943119 66.291222 
L 295.374566 66.368255 
L 295.51831 66.626629 
L 295.662015 66.520037 
L 295.951125 65.845283 
L 296.380853 65.363666 
L 296.811945 65.508763 
L 296.95607 65.456393 
L 297.099905 65.592611 
L 297.243471 65.467681 
L 297.387158 65.516985 
L 297.674997 65.74678 
L 297.962366 65.009783 
L 298.249932 66.098118 
L 298.539309 66.021437 
L 299.113334 65.482521 
L 299.543956 64.364018 
L 300.406685 62.952752 
L 301.1256 62.775082 
L 301.269411 62.825052 
L 301.556749 63.287727 
L 301.700877 62.175073 
L 302.563638 62.127415 
L 303.570276 61.594696 
L 303.71363 61.329746 
L 303.857322 61.395034 
L 305.007959 58.477058 
L 305.438977 58.258692 
L 305.870476 57.305242 
L 306.445143 56.548103 
L 306.876744 54.853602 
L 307.30785 54.290594 
L 308.171187 54.095516 
L 308.31473 54.074689 
L 308.602159 53.584644 
L 308.889823 52.526666 
L 311.046338 42.30394 
L 312.772006 30.286994 
L 313.92227 28.831761 
L 314.065647 28.752547 
L 314.353021 28.936538 
L 314.784982 29.574382 
L 314.928837 29.660111 
L 315.215405 30.082909 
L 315.647059 30.999148 
L 316.22206 32.791533 
L 316.653043 34.122996 
L 317.084665 34.932748 
L 317.517226 35.886875 
L 318.090692 36.988576 
L 318.234441 36.964994 
L 318.665792 36.410265 
L 319.240915 33.875571 
L 319.528221 33.204091 
L 319.815982 33.160934 
L 320.103299 33.481175 
L 320.535457 34.88586 
L 321.540486 39.101148 
L 321.828517 39.776631 
L 322.259405 39.781596 
L 322.54737 39.533407 
L 322.69093 39.578801 
L 322.835575 39.350362 
L 323.553397 37.248067 
L 323.984311 35.927319 
L 324.847552 33.193801 
L 325.134524 32.98432 
L 325.278538 32.885603 
L 325.565562 33.147849 
L 325.709846 32.966689 
L 325.997102 33.161844 
L 326.140664 33.160099 
L 326.428569 33.032553 
L 326.717682 33.334932 
L 327.003139 32.96099 
L 327.58191 32.642905 
L 328.009354 32.81018 
L 328.298823 32.81642 
L 328.874014 33.007235 
L 329.303345 33.208669 
L 329.734994 32.960562 
L 330.453194 31.774347 
L 331.603718 27.630443 
L 332.466016 22.472542 
L 335.197761 0.244987 
L 335.465668 -1 
M 336.915435 -1 
L 337.066434 -0.060707 
L 337.785408 4.400719 
L 339.942019 14.235256 
L 341.091332 21.780379 
L 341.810245 25.390827 
L 342.529404 27.826849 
L 343.10445 29.497243 
L 343.248234 29.398124 
L 343.678995 30.408437 
L 343.968266 30.574654 
L 344.541869 31.004595 
L 344.685774 30.994456 
L 344.830471 31.139275 
L 345.116664 31.127381 
L 345.548362 31.192323 
L 345.835526 31.166243 
L 345.979622 31.209114 
L 346.267875 31.013815 
L 347.129524 30.668512 
L 347.560499 30.899993 
L 347.849425 30.798812 
L 348.135655 30.919633 
L 348.279421 30.867194 
L 348.423194 31.124037 
L 348.567296 30.967774 
L 348.711002 31.04367 
L 349.141957 31.862404 
L 349.285658 31.970522 
L 349.429508 31.906256 
L 349.573496 31.594508 
L 349.7172 31.670565 
L 349.860903 31.573424 
L 350.004961 31.683402 
L 350.148279 31.551601 
L 350.292295 31.596143 
L 350.436045 31.800717 
L 350.579685 31.752029 
L 351.011301 31.30827 
L 351.729746 31.265646 
L 352.017521 31.104542 
L 352.304861 30.99797 
L 353.023715 30.368198 
L 353.311964 30.330686 
L 353.455737 30.294317 
L 353.599514 30.13682 
L 353.886196 30.225122 
L 354.461512 29.82489 
L 354.606262 29.947192 
L 355.180308 29.32671 
L 355.32383 29.457239 
L 355.754845 29.047802 
L 356.042678 28.877429 
L 356.473705 28.76663 
L 356.76151 28.519738 
L 357.336358 26.785275 
L 357.480336 26.688998 
L 357.76763 26.390872 
L 357.911974 26.441058 
L 358.342901 25.767073 
L 358.630302 25.503859 
L 358.917714 25.520428 
L 359.492762 24.561034 
L 359.780106 24.077012 
L 360.788499 21.74643 
L 361.07599 21.625625 
L 361.505802 21.087325 
L 361.650876 20.983776 
L 361.936803 20.334154 
L 362.080447 20.345373 
L 362.511909 19.57051 
L 362.800021 18.912437 
L 363.23249 18.603476 
L 363.518078 18.562126 
L 364.093226 17.777812 
L 364.38057 17.116982 
L 364.668306 17.18254 
L 364.955816 17.196707 
L 365.243527 17.195801 
L 365.53083 17.372225 
L 365.674507 17.387495 
L 366.249739 17.8613 
L 367.256287 18.562037 
L 367.688057 18.616519 
L 367.974859 18.812264 
L 368.262256 18.804365 
L 368.693673 18.314941 
L 368.981091 17.408913 
L 369.268915 16.868682 
L 369.699985 15.42072 
L 370.85018 12.039808 
L 371.138507 11.350579 
L 372.000229 10.09505 
L 372.862798 8.634684 
L 373.294884 8.215942 
L 373.725319 8.224686 
L 373.869441 8.351946 
L 374.013148 8.279355 
L 374.300405 8.753264 
L 374.444125 8.735623 
L 374.732588 9.099252 
L 375.450998 9.888699 
L 375.594409 9.900844 
L 376.313471 10.89092 
L 376.745127 11.461271 
L 376.888442 11.403422 
L 377.032285 11.571508 
L 377.176201 11.544239 
L 377.319676 11.770638 
L 377.46332 11.785177 
L 377.895208 12.250324 
L 378.325872 12.770604 
L 378.613307 13.293345 
L 378.757414 13.191402 
L 379.188568 13.784336 
L 379.332169 13.676471 
L 380.769801 10.992303 
L 381.92011 8.790109 
L 382.207436 8.450956 
L 382.496092 8.529949 
L 382.783291 8.766161 
L 383.214587 9.334539 
L 383.645284 10.393746 
L 384.077118 10.834973 
L 384.507887 12.051703 
L 384.651496 12.221095 
L 384.795154 12.19921 
L 385.226927 11.418289 
L 385.657626 10.286856 
L 386.232898 7.603744 
L 387.589553 -1 
L 387.589553 -1 
" clip-path="url(#p7fa7f51f0d)" style="fill: none; stroke: #8b928d; stroke-linecap: square"/>
   </g>
   <g id="line2d_36">
    <path d="M 74.379545 196.672727 
L 74.666345 196.425195 
L 74.955078 196.061471 
L 75.241985 195.816518 
L 75.385834 195.477426 
L 75.672904 195.358882 
L 76.104627 194.767969 
L 76.392062 194.591888 
L 76.679761 196.672727 
L 157.333918 196.672727 
L 157.477997 195.738444 
L 157.765356 186.142958 
L 158.196757 178.733337 
L 159.921803 121.036454 
L 160.209149 116.12557 
L 160.352826 114.844145 
L 160.496577 116.264294 
L 160.926936 128.990918 
L 161.216102 134.490362 
L 161.503846 149.898601 
L 162.077984 185.059986 
L 162.3658 192.327473 
L 162.653787 196.672727 
L 166.103938 196.672727 
L 166.391061 192.117452 
L 166.534581 191.927949 
L 166.965491 182.773774 
L 167.110609 183.863064 
L 167.25336 186.729607 
L 167.404377 187.469829 
L 167.540714 188.984637 
L 167.972391 196.672727 
L 172.572308 196.672727 
L 172.71592 194.730743 
L 173.147529 181.150795 
L 173.434827 186.442724 
L 173.57842 185.30948 
L 173.866437 179.512368 
L 174.009987 179.023241 
L 174.153798 180.086041 
L 174.297507 179.507477 
L 174.441305 180.071217 
L 174.728917 183.032714 
L 175.448099 196.672727 
L 181.340777 196.672727 
L 181.485543 194.912996 
L 181.917164 185.774272 
L 182.061657 185.468162 
L 182.203631 185.844785 
L 182.348158 185.161956 
L 182.493343 182.658146 
L 182.636692 182.680585 
L 182.923484 186.762605 
L 183.211176 180.385287 
L 183.356306 180.347746 
L 184.217333 196.672727 
L 188.961417 196.672727 
L 189.105454 195.983354 
L 189.249215 191.723362 
L 189.392503 191.579898 
L 189.682158 194.597921 
L 189.968191 190.199615 
L 190.255579 192.539261 
L 190.543134 196.442818 
L 190.686872 196.672727 
L 197.013334 196.672727 
L 197.300351 184.008503 
L 198.306856 134.026244 
L 198.594135 127.129332 
L 199.025568 115.31772 
L 199.169117 115.379659 
L 199.457125 114.557365 
L 199.60082 117.111948 
L 200.031948 130.830178 
L 200.46317 140.690191 
L 200.750593 150.472363 
L 201.038099 162.786788 
L 201.46949 172.774185 
L 201.900595 180.612896 
L 202.475705 196.491604 
L 202.763582 196.672727 
L 206.789134 196.672727 
L 206.932745 195.917749 
L 207.076498 193.874351 
L 207.220194 194.937996 
L 207.363871 191.837756 
L 207.652065 182.066045 
L 207.795376 180.149114 
L 207.939173 180.190967 
L 208.083111 179.9408 
L 208.2264 180.488199 
L 208.370721 178.290379 
L 208.514513 178.442668 
L 208.80185 181.307883 
L 209.089559 185.958187 
L 209.376854 189.760054 
L 209.812946 195.36917 
L 209.952082 196.672727 
L 210.671233 196.672727 
L 210.814863 195.751276 
L 211.102099 182.712501 
L 211.533665 176.718823 
L 211.677469 173.954664 
L 211.820909 174.133364 
L 211.965584 174.849106 
L 212.253293 171.454861 
L 212.396506 171.748429 
L 212.540078 170.868272 
L 212.971572 174.721007 
L 213.97795 196.672727 
L 238.563249 196.662959 
L 238.851075 193.870314 
L 238.994705 193.882171 
L 239.138394 193.727921 
L 239.569802 195.058003 
L 239.857611 196.672727 
L 243.595631 196.672727 
L 243.739487 196.502797 
L 245.322345 138.342491 
L 247.333617 76.080387 
L 247.477335 76.964269 
L 247.621529 76.773049 
L 247.768565 77.151222 
L 247.908922 76.898865 
L 248.196259 77.193005 
L 248.484486 77.168749 
L 248.77144 77.476989 
L 249.059364 77.470769 
L 249.203252 77.779652 
L 249.346702 77.753363 
L 249.490605 77.912419 
L 249.777916 77.811302 
L 250.065816 78.285401 
L 250.209587 78.366889 
L 250.496696 78.104467 
L 250.786353 78.395427 
L 251.215671 78.981464 
L 251.503566 78.549556 
L 251.7909 78.213873 
L 252.222841 78.723991 
L 252.94105 79.536881 
L 253.085151 79.532675 
L 253.373692 78.94746 
L 253.660368 78.355387 
L 253.80356 78.364806 
L 254.093179 78.87829 
L 254.668366 79.705914 
L 254.954192 79.658341 
L 255.097783 79.642753 
L 255.385087 79.89389 
L 255.529438 79.983862 
L 255.673079 79.802423 
L 256.104991 80.235106 
L 256.248278 80.079958 
L 256.824746 80.666421 
L 256.967158 80.513856 
L 257.110942 80.82776 
L 257.542947 80.751436 
L 257.973827 81.272056 
L 258.261099 81.162126 
L 258.404475 81.414223 
L 258.549945 81.329057 
L 258.692675 81.902578 
L 258.97969 84.835766 
L 259.269442 88.946752 
L 259.556082 97.216892 
L 260.561214 141.579303 
L 261.58628 183.584205 
L 261.8734 189.874675 
L 262.306518 196.672727 
L 263.598719 196.672727 
L 264.174066 187.537805 
L 264.3179 187.619219 
L 265.180425 183.989911 
L 265.324145 183.742276 
L 265.468263 184.708358 
L 265.899333 191.263314 
L 266.186592 194.391841 
L 266.330908 196.672727 
L 312.340738 196.672727 
L 312.772006 188.663902 
L 313.777785 183.750788 
L 314.209687 185.463217 
L 314.496687 189.162599 
L 315.071795 196.672727 
L 332.897561 196.672727 
L 333.041095 193.786987 
L 334.909695 100.649443 
L 335.341269 85.461733 
L 335.772141 77.422364 
L 336.203723 79.002963 
L 336.635225 81.742074 
L 336.922675 88.9703 
L 338.072617 136.999658 
L 338.791274 161.293786 
L 339.079115 169.569261 
L 339.942019 196.672727 
L 397.87976 196.672727 
L 399.890661 130.155533 
L 401.184681 91.166113 
L 401.472754 85.732252 
L 402.190953 69.776122 
L 403.197532 53.066297 
L 403.485108 49.812044 
L 403.916883 44.209764 
L 404.779674 38.058552 
L 404.92278 37.627246 
L 405.498822 34.398907 
L 405.928982 32.789584 
L 406.504347 29.657106 
L 406.79159 29.020968 
L 407.079808 27.92438 
L 407.510477 29.130796 
L 407.654077 29.154649 
L 407.942102 29.697399 
L 408.229424 30.452372 
L 408.516949 30.74569 
L 409.09192 32.290393 
L 409.235678 32.446562 
L 409.523498 32.345414 
L 409.810949 32.628425 
L 410.098402 33.178755 
L 410.817215 35.482062 
L 410.961064 35.539288 
L 411.392494 35.334854 
L 411.679665 35.80768 
L 412.830277 38.513608 
L 412.973663 38.61384 
L 413.26118 39.370286 
L 413.549163 40.02995 
L 413.693889 40.138665 
L 414.125191 41.268378 
L 414.267831 41.419296 
L 414.842677 42.760419 
L 414.986806 42.908124 
L 415.427376 44.000764 
L 415.562443 44.113403 
L 415.993025 45.23548 
L 416.137502 45.328474 
L 418.437156 50.430069 
L 418.580808 50.619696 
L 419.012331 51.912426 
L 419.156058 51.956731 
L 419.587081 53.028263 
L 419.731422 53.134997 
L 420.162756 54.341393 
L 420.449689 54.778744 
L 420.738256 55.550086 
L 421.024863 56.023614 
L 421.456854 57.159217 
L 421.74391 57.822433 
L 427.063528 70.226945 
L 427.350875 70.954123 
L 427.494509 71.101616 
L 427.926108 72.319857 
L 428.069758 72.449299 
L 428.501297 73.721349 
L 428.64478 73.865875 
L 428.932415 74.718645 
L 429.220017 75.213371 
L 430.082615 77.567105 
L 430.370059 78.152855 
L 430.51377 79.060284 
L 430.94518 84.918715 
L 431.807854 101.494814 
L 432.09503 110.385337 
L 434.108437 193.97236 
L 434.252167 196.672727 
L 440.002513 196.672727 
L 440.146364 196.544543 
L 441.152963 158.505198 
L 442.15925 110.524824 
L 442.878104 85.372187 
L 443.021808 82.344854 
L 443.165971 82.203828 
L 444.172276 80.000941 
L 444.459638 79.353179 
L 444.747015 78.639178 
L 445.034816 78.179263 
L 445.322205 77.404996 
L 445.60956 76.583698 
L 445.753824 76.485371 
L 446.18554 75.546771 
L 446.616319 74.053004 
L 447.047296 73.554731 
L 447.336422 72.970193 
L 447.909997 70.925654 
L 448.485108 70.232473 
L 448.628808 69.880156 
L 449.060445 68.068744 
L 449.635554 67.283273 
L 449.922894 67.18183 
L 450.066646 67.790342 
L 450.498181 72.687962 
L 450.929127 81.233387 
L 451.361521 97.454639 
L 451.94684 130.276862 
L 452.942208 196.672727 
L 454.955274 196.672727 
L 455.386235 175.043103 
L 455.673652 161.446421 
L 455.961505 157.200322 
L 456.392539 152.706729 
L 456.536879 152.299358 
L 457.111571 156.911009 
L 457.399468 164.354615 
L 457.830242 178.888174 
L 458.118453 185.144287 
L 458.40577 192.743756 
L 458.693133 196.672727 
L 492.19254 196.672727 
L 492.480612 190.891246 
L 492.624026 190.663282 
L 492.911321 189.37482 
L 493.486755 186.632561 
L 493.773886 180.779824 
L 494.492847 163.060328 
L 494.780387 161.440148 
L 495.068141 172.17523 
L 495.499268 196.672727 
L 509.301692 196.672727 
L 510.308139 156.004784 
L 510.883216 143.39661 
L 511.602417 131.284197 
L 512.896353 101.748769 
L 513.040034 100.608665 
L 513.47103 101.396219 
L 513.614804 101.594061 
L 513.759006 101.333556 
L 514.189954 102.103421 
L 514.333608 102.381273 
L 514.477893 102.148375 
L 514.621614 102.286063 
L 515.052544 103.257509 
L 515.34042 103.268286 
L 515.916022 104.39191 
L 516.05938 104.433028 
L 516.346715 104.172145 
L 516.634036 104.611724 
L 517.353115 106.288953 
L 517.497122 106.136129 
L 517.78457 105.753874 
L 518.071874 106.48379 
L 518.790863 108.323295 
L 519.22241 107.709048 
L 519.797212 109.129247 
L 520.085741 109.667388 
L 520.228776 109.434555 
L 520.516107 109.881766 
L 520.659726 110.116456 
L 520.803995 110.00814 
L 521.236198 110.909324 
L 521.378655 110.883714 
L 521.810371 111.615017 
L 521.953974 111.521317 
L 522.241273 112.135406 
L 522.960331 112.911132 
L 523.104473 112.997648 
L 523.391813 113.683602 
L 523.535507 113.697751 
L 524.540599 115.433055 
L 524.684915 115.49557 
L 524.972174 116.146308 
L 525.115842 116.160931 
L 525.54852 116.959756 
L 525.692452 116.806716 
L 525.979473 117.499663 
L 526.267655 117.87425 
L 526.554822 118.558433 
L 526.698382 118.581668 
L 527.417325 119.597216 
L 527.704797 119.994276 
L 527.849218 120.026795 
L 528.136446 120.661615 
L 528.280288 120.660141 
L 528.711625 121.56868 
L 528.85545 121.571057 
L 529.286978 122.414724 
L 529.430471 122.420813 
L 529.717989 123.165757 
L 530.006022 123.338268 
L 530.437679 124.288297 
L 530.581986 124.385507 
L 530.867941 125.027856 
L 531.012979 125.034565 
L 531.299601 125.734698 
L 531.586819 125.994249 
L 531.874844 126.805001 
L 532.162014 126.956859 
L 532.45012 127.586558 
L 532.737308 127.857669 
L 533.024559 128.506863 
L 533.312478 128.759821 
L 533.600805 129.395649 
L 533.887149 129.515399 
L 534.175202 130.442869 
L 534.606216 131.143115 
L 534.894143 131.682771 
L 535.037936 131.637272 
L 535.468922 132.667224 
L 535.612938 132.653994 
L 536.044033 133.725791 
L 536.188022 133.718965 
L 536.619471 134.692787 
L 536.763963 134.658588 
L 537.194564 135.688393 
L 537.338264 135.699136 
L 537.769116 136.697482 
L 537.913377 136.654351 
L 538.344444 137.987645 
L 538.488203 137.931015 
L 538.9199 138.992082 
L 539.063567 138.975563 
L 539.495485 140.126848 
L 539.638798 140.069208 
L 540.213447 141.221725 
L 540.357192 141.390026 
L 540.645055 142.06622 
L 540.788845 142.046756 
L 541.363954 143.001628 
L 541.651344 143.613744 
L 541.938519 144.098382 
L 542.228158 144.659621 
L 542.513968 145.108797 
L 542.657593 145.137592 
L 543.08937 146.151026 
L 543.232742 146.215551 
L 543.664231 147.374077 
L 543.808017 147.322408 
L 544.238619 148.411552 
L 544.38239 148.353241 
L 544.814251 149.356273 
L 544.956906 149.352845 
L 545.389443 150.433154 
L 545.533165 150.454254 
L 545.676914 150.639032 
L 546.108415 151.601501 
L 546.252058 151.779702 
L 546.683632 152.73421 
L 546.827328 152.801102 
L 547.258431 153.798862 
L 547.402596 153.800164 
L 547.833662 154.974768 
L 547.977401 155.000514 
L 548.408974 156.14322 
L 548.55256 156.252081 
L 548.839859 156.928308 
L 549.127805 157.398371 
L 549.271577 157.50563 
L 549.702503 158.497312 
L 549.846784 158.570666 
L 550.279145 159.791921 
L 550.421751 159.839561 
L 550.853128 160.98969 
L 550.996742 160.950337 
L 551.428407 162.036596 
L 551.571994 162.099793 
L 552.148136 163.295272 
L 552.291011 163.357013 
L 552.72194 164.432896 
L 552.866178 164.550553 
L 553.440776 166.011289 
L 553.584918 165.953239 
L 554.159649 167.291752 
L 554.304051 167.297884 
L 554.734923 168.437783 
L 555.022306 168.665324 
L 555.454571 169.808146 
L 555.597539 169.72303 
L 555.741322 169.940423 
L 556.172983 171.082397 
L 556.316375 171.033462 
L 556.891755 172.322178 
L 557.035453 172.355884 
L 557.467129 173.540166 
L 557.754521 173.67779 
L 558.185441 174.80365 
L 558.473281 174.881558 
L 558.904286 176.072259 
L 559.048546 176.027935 
L 559.335901 176.619083 
L 559.623426 177.192319 
L 559.7678 177.195022 
L 560.198709 178.270278 
L 560.342223 178.235252 
L 560.630265 178.896925 
L 560.917587 179.532146 
L 561.061192 179.51276 
L 561.636294 180.789504 
L 561.780322 180.900309 
L 562.212408 181.934904 
L 562.355436 181.94771 
L 562.786416 183.094481 
L 562.930531 183.265525 
L 563.074315 183.164197 
L 563.505325 184.246746 
L 563.793991 184.489943 
L 564.224974 185.48239 
L 564.368247 185.477532 
L 564.943011 186.897886 
L 565.086799 186.800473 
L 565.518281 187.769625 
L 565.805741 187.883749 
L 566.237188 194.305037 
L 566.380925 196.672727 
L 609.370455 196.672727 
L 609.370455 196.672727 
" clip-path="url(#p7fa7f51f0d)" style="fill: none; stroke: #0f6e56; stroke-width: 1.2; stroke-linecap: square"/>
   </g>
   <g id="line2d_37">
    <path d="M 74.379545 196.672727 
L 77.257605 196.672727 
L 77.970825 194.877006 
L 79.394019 186.496184 
L 80.129852 177.997774 
L 80.843119 172.348051 
L 81.556185 169.023421 
L 83.718533 164.04421 
L 84.431616 161.359451 
L 85.144702 160.90311 
L 86.593674 162.49448 
L 88.022666 165.465229 
L 88.755835 165.459732 
L 90.184912 168.234065 
L 90.898012 167.89508 
L 91.608109 168.414221 
L 92.347077 171.247818 
L 93.770044 167.16695 
L 95.935303 159.421423 
L 97.361502 160.56797 
L 98.094746 163.800154 
L 98.81062 168.363679 
L 99.523102 174.380051 
L 101.683063 188.109045 
L 102.396264 188.048436 
L 103.132318 184.2002 
L 104.558229 173.322323 
L 105.296965 164.317231 
L 105.984421 165.220933 
L 106.720328 168.259857 
L 108.146608 168.546524 
L 108.86255 164.884119 
L 109.59867 164.016713 
L 110.308788 160.215485 
L 112.473833 162.217369 
L 113.184039 161.397416 
L 113.896596 160.937622 
L 116.059084 157.394314 
L 116.772279 157.953847 
L 117.508441 162.083507 
L 118.934817 167.042146 
L 119.647535 164.539105 
L 120.383716 163.82387 
L 121.096581 163.749739 
L 122.522864 170.739004 
L 123.2589 180.245053 
L 123.9718 184.097101 
L 124.687834 184.152143 
L 126.84677 177.751995 
L 127.560345 169.853143 
L 128.273201 169.723321 
L 129.725488 174.799568 
L 130.435608 178.056109 
L 131.148142 173.078559 
L 131.884598 170.115828 
L 134.023975 167.326615 
L 134.759882 164.635351 
L 135.473052 163.133611 
L 136.89919 170.932642 
L 137.635155 177.284464 
L 138.348159 174.878239 
L 139.061279 173.961309 
L 141.226206 168.356413 
L 141.962507 167.169139 
L 142.649445 164.249919 
L 144.098669 172.234876 
L 144.811666 173.876525 
L 145.524725 172.923143 
L 146.237905 169.838337 
L 148.400184 167.078636 
L 149.113102 168.339555 
L 149.852026 169.051757 
L 151.990788 167.293541 
L 152.724471 167.514729 
L 153.437441 168.189793 
L 155.599664 169.085861 
L 156.312606 170.202762 
L 157.026005 172.584513 
L 158.474876 178.2144 
L 159.191086 183.088468 
L 159.903767 185.095155 
L 160.616413 187.762049 
L 162.063234 187.353781 
L 162.776392 184.776527 
L 163.489266 177.032075 
L 164.225312 173.766993 
L 165.651417 169.176776 
L 166.364676 167.990305 
L 167.100575 169.432245 
L 167.816625 172.761543 
L 169.242751 173.250883 
L 169.978662 172.071934 
L 170.68896 168.140226 
L 171.402062 166.730983 
L 173.567118 171.858096 
L 174.277498 180.283619 
L 174.990455 179.805198 
L 176.439421 179.458768 
L 177.152639 176.688904 
L 177.868521 172.048392 
L 178.601617 154.486968 
L 181.476936 170.535899 
L 182.189924 172.295095 
L 184.352276 174.343341 
L 185.065099 172.913879 
L 185.778209 169.76272 
L 187.940488 168.350627 
L 189.36659 170.118977 
L 190.815723 176.063183 
L 191.531674 176.484576 
L 192.24198 173.226654 
L 192.980744 171.350962 
L 195.11994 162.757638 
L 195.853317 168.362877 
L 196.566321 171.191602 
L 198.728529 175.20214 
L 199.441563 190.64639 
L 200.154577 191.035882 
L 201.603723 187.147438 
L 202.319681 183.197758 
L 203.029947 181.195303 
L 203.745783 177.747566 
L 205.192 172.335194 
L 205.904903 169.107435 
L 206.618196 169.955925 
L 207.354622 173.830813 
L 209.493271 175.927186 
L 210.232345 170.036086 
L 210.942552 167.181234 
L 213.106274 172.282208 
L 213.817826 168.663688 
L 214.530967 172.929193 
L 216.695781 173.702059 
L 217.429085 172.488679 
L 218.119224 168.198016 
L 219.56832 170.011614 
L 220.281306 168.556327 
L 221.020174 168.977836 
L 221.733307 166.994772 
L 223.892641 168.064392 
L 224.608467 164.639609 
L 227.481068 167.233308 
L 228.196862 162.565745 
L 228.910008 164.699906 
L 231.069456 173.807941 
L 231.785357 175.852299 
L 232.518391 175.137257 
L 235.394031 168.451839 
L 236.109569 169.878179 
L 238.271797 175.634624 
L 238.982091 163.945869 
L 239.694993 168.852634 
L 241.857256 172.789612 
L 242.570264 176.360177 
L 243.286332 174.765254 
L 245.445553 179.835648 
L 246.158622 187.889959 
L 246.894752 191.791763 
L 249.034035 195.973825 
L 249.770127 196.672727 
L 250.48287 195.830357 
L 252.645216 196.672727 
L 254.097096 196.672727 
L 256.236268 196.464508 
L 256.946585 196.672727 
L 259.108831 196.672727 
L 259.821769 191.581405 
L 260.53488 195.16627 
L 261.273538 193.204989 
L 264.148914 178.26441 
L 264.861983 179.125421 
L 267.024153 180.857394 
L 267.73746 178.524311 
L 268.447709 174.007972 
L 270.609899 161.82698 
L 271.322712 156.706255 
L 272.038671 155.35588 
L 274.200851 156.978978 
L 274.9111 160.092749 
L 275.650216 161.908388 
L 277.78656 158.037125 
L 278.522498 157.93173 
L 279.235552 159.139273 
L 281.39769 161.559598 
L 282.824054 160.477631 
L 284.272916 158.175859 
L 284.98865 154.256992 
L 285.699022 153.207605 
L 286.438088 154.273358 
L 288.57449 153.390981 
L 289.313368 158.206379 
L 290.023338 159.660216 
L 292.185582 163.50414 
L 292.89887 163.457759 
L 293.611838 161.575871 
L 295.773964 159.978804 
L 296.489879 158.886542 
L 297.199883 159.871295 
L 298.652074 157.054502 
L 299.362344 155.146969 
L 300.075385 155.186047 
L 300.811495 156.082623 
L 302.950576 155.480247 
L 303.686638 155.803041 
L 304.399709 154.304185 
L 306.561894 156.170826 
L 307.277834 155.640681 
L 307.988015 156.749867 
L 310.150165 158.259513 
L 310.863141 162.078645 
L 311.576177 163.79954 
L 313.738541 172.358503 
L 314.454521 177.339678 
L 315.187616 177.873394 
L 317.326563 174.838596 
L 318.063061 168.958122 
L 318.778865 166.138081 
L 320.938214 167.106145 
L 321.651051 165.275332 
L 322.364262 162.940189 
L 324.526626 161.162297 
L 325.955676 162.949608 
L 327.40199 163.184788 
L 328.114983 162.823064 
L 328.850725 163.869714 
L 329.563829 161.325678 
L 331.705908 159.230998 
L 332.439249 163.347491 
L 333.155002 166.588799 
L 335.31436 178.072569 
L 336.027431 188.144153 
L 336.740547 191.153734 
L 338.902579 187.991583 
L 339.615859 180.246634 
L 340.331711 175.557684 
L 341.777938 168.137239 
L 342.490904 160.629934 
L 343.204177 157.912293 
L 343.942998 157.5539 
L 346.079673 155.056621 
L 346.815394 154.585459 
L 347.528449 150.920268 
L 349.690456 150.405406 
L 350.40659 149.183645 
L 351.119808 148.864054 
L 353.281716 148.330364 
L 353.992081 146.25437 
L 354.707945 147.190212 
L 356.154212 147.687748 
L 356.870278 148.147667 
L 357.580384 149.069002 
L 358.31634 150.910175 
L 360.455656 149.448972 
L 361.191666 152.097447 
L 361.907595 152.046887 
L 364.066802 152.460349 
L 364.782894 154.331176 
L 365.493029 154.57449 
L 367.658023 155.162727 
L 368.368368 152.580098 
L 369.08152 150.910647 
L 370.530304 152.663051 
L 371.24361 152.410382 
L 371.959528 155.755806 
L 372.695486 157.294151 
L 375.567892 157.029041 
L 376.280971 154.898366 
L 378.443164 153.899064 
L 379.15898 151.020699 
L 379.87207 146.223935 
L 382.031593 149.041327 
L 382.744564 151.385644 
L 383.460616 151.950373 
L 384.909363 148.693835 
L 385.622366 144.405028 
L 386.332912 145.094888 
L 387.068789 149.33563 
L 389.20813 154.740242 
L 389.944112 161.980025 
L 390.659966 162.977802 
L 392.822222 161.412035 
L 393.535347 161.072756 
L 394.245675 164.676842 
L 396.407722 164.532709 
L 397.833806 164.755667 
L 399.282946 169.207108 
L 399.995969 176.914549 
L 400.712026 179.180555 
L 401.445149 182.896624 
L 403.58442 188.04713 
L 404.32318 191.759363 
L 405.033363 194.060112 
L 407.195658 194.956556 
L 407.908741 196.048125 
L 408.621788 196.048092 
L 410.786691 196.672727 
L 430.19768 196.672727 
L 431.646658 196.25837 
L 432.362832 194.996057 
L 433.072993 192.399283 
L 433.789071 188.08312 
L 435.94826 181.882364 
L 436.661216 179.048826 
L 437.37708 177.542212 
L 439.536406 175.632354 
L 440.249622 176.571502 
L 440.988492 180.60249 
L 443.124851 187.563252 
L 443.860886 195.857013 
L 444.576848 196.672727 
L 450.324455 196.672727 
L 451.040174 195.833859 
L 451.750546 194.568022 
L 453.912483 183.633127 
L 454.625834 172.009809 
L 455.339074 172.82798 
L 456.787901 179.264374 
L 457.501069 184.069185 
L 458.214091 185.473831 
L 458.953007 184.201225 
L 460.376281 173.839677 
L 461.11236 165.38936 
L 461.82558 164.90599 
L 462.538404 163.93659 
L 464.700749 169.851267 
L 466.126887 164.502845 
L 467.575949 160.963036 
L 468.288959 158.87158 
L 469.002024 162.990485 
L 469.738266 165.491692 
L 471.164154 166.06577 
L 471.877333 167.616822 
L 472.590311 165.948198 
L 473.326403 166.808562 
L 475.465626 162.349844 
L 476.914862 158.141014 
L 479.077037 154.27256 
L 479.789866 162.513238 
L 480.502831 165.745078 
L 481.952086 165.797271 
L 482.665134 161.338305 
L 483.378311 160.316742 
L 484.117176 163.48519 
L 486.256397 167.917223 
L 486.989737 168.79224 
L 487.702649 165.939695 
L 489.867763 166.38525 
L 490.580681 169.23903 
L 491.293825 171.469897 
L 494.166208 177.92047 
L 494.879439 177.150966 
L 496.328731 178.541284 
L 497.041739 170.137711 
L 497.754741 168.047501 
L 498.49337 169.679788 
L 499.916832 171.749161 
L 500.632684 171.251055 
L 501.368572 171.977775 
L 502.078918 165.721114 
L 503.508269 163.961336 
L 504.243993 164.897168 
L 504.957367 165.144597 
L 505.66999 167.21263 
L 507.829257 167.827275 
L 509.278465 175.796046 
L 510.704562 183.704156 
L 511.420531 189.517448 
L 512.130857 192.046764 
L 512.866841 193.942445 
L 514.318762 196.25921 
L 515.006026 196.672727 
L 552.410159 196.672727 
L 554.572459 196.395063 
L 555.282618 196.672727 
L 566.783677 196.672727 
L 568.948638 192.38757 
L 569.658748 183.251731 
L 570.371781 182.303263 
L 572.533937 178.315721 
L 573.249922 176.589666 
L 573.960363 174.245582 
L 576.122247 169.608662 
L 576.835713 164.360961 
L 577.571573 163.60387 
L 579.710828 159.669335 
L 580.446892 158.937727 
L 581.159759 156.139401 
L 583.325021 157.979784 
L 584.037994 160.361428 
L 584.748004 160.596009 
L 586.910242 163.949429 
L 587.623391 168.496769 
L 588.359356 166.873071 
L 590.501561 163.472569 
L 591.237477 164.687658 
L 591.95056 163.247058 
L 594.08685 161.465696 
L 594.80004 159.207538 
L 595.536119 161.266634 
L 597.698267 161.044464 
L 599.124398 166.54305 
L 601.286685 179.460251 
L 601.999592 191.035364 
L 602.712791 192.417488 
L 604.161856 190.863944 
L 604.877724 189.708345 
L 605.587863 190.244623 
L 606.326804 192.225873 
L 608.463381 195.804309 
L 608.463381 195.804309 
" clip-path="url(#p7fa7f51f0d)" style="fill: none; stroke: #d85a30; stroke-width: 1.2; stroke-linecap: square"/>
   </g>
   <g id="patch_3">
    <path d="M 47.63 214.72 
L 47.63 16.2 
" style="fill: none; stroke: #c9cec9; stroke-width: 0.8; stroke-linejoin: miter; stroke-linecap: square"/>
   </g>
   <g id="patch_4">
    <path d="M 47.63 214.72 
L 636.12 214.72 
" style="fill: none; stroke: #c9cec9; stroke-width: 0.8; stroke-linejoin: miter; stroke-linecap: square"/>
   </g>
   <g id="legend_1">
    <g id="line2d_38">
     <path d="M 57.53 30.608281 
L 68.53 30.608281 
L 79.53 30.608281 
" style="fill: none; stroke: #8b928d; stroke-linecap: square"/>
    </g>
    <g id="text_20">
     <text style="font-size: 11px; font-family: 'system-ui', 'DejaVu Sans', sans-serif; text-anchor: start; fill: #4a5552" x="88.33" y="34.458281" transform="rotate(-0 88.33 34.458281)">straight integration of the accelerometer</text>
    </g>
    <g id="line2d_39">
     <path d="M 57.53 46.754219 
L 68.53 46.754219 
L 79.53 46.754219 
" style="fill: none; stroke: #0f6e56; stroke-width: 1.2; stroke-linecap: square"/>
    </g>
    <g id="text_21">
     <text style="font-size: 11px; font-family: 'system-ui', 'DejaVu Sans', sans-serif; text-anchor: start; fill: #4a5552" x="88.33" y="50.604219" transform="rotate(-0 88.33 50.604219)">after bias removal and high-pass</text>
    </g>
    <g id="line2d_40">
     <path d="M 57.53 62.900156 
L 68.53 62.900156 
L 79.53 62.900156 
" style="fill: none; stroke: #d85a30; stroke-width: 1.2; stroke-linecap: square"/>
    </g>
    <g id="text_22">
     <text style="font-size: 11px; font-family: 'system-ui', 'DejaVu Sans', sans-serif; text-anchor: start; fill: #4a5552" x="88.33" y="66.750156" transform="rotate(-0 88.33 66.750156)">GPS</text>
    </g>
   </g>
  </g>
 </g>
 <defs>
  <clipPath id="p7fa7f51f0d">
   <rect x="47.63" y="16.2" width="588.49" height="198.52"/>
  </clipPath>
 </defs>
</svg>
